:SAMPLES-PER-SECOND 30
:FULLY-SPECIFIED
:DEGREES
201
root  34.80901042 36.57050546 -14.22303568 9.760606766 -3.971819878 3.928004026
lowerback  -7.904293537 0.01221402828 -1.277655125
upperback  -4.034230232 0.7089406848 -4.714739799
thorax  0.3058199883 0.5541059971 -4.102469921
lowerneck  -7.040440083 -14.78663349 -9.569629669
upperneck  13.91196537 -20.71609879 13.24715614
head  7.857201576 -9.27490139 3.616384029
lclavicle  0 -4.497500157e-015 -2.743230041e-014
lhumerus  -47.4917984 30.92279816 61.15480042
lradius  -0.05498467013 -6.507048965e-006 29.06607628
lwrist  3.192251654e-007 -3.790274832e-007 -30.14760017
lhand  -4.44407391e-031 -37.38539886 -10.50319958
lfingers  90 7.125020027 -90
lthumb  95.00541274 -25.32483892 101.5716485
rclavicle  0 -4.497500157e-015 -2.743230041e-014
rhumerus  18.01510239 -37.23860168 -38.71590424
rradius  -5.16745672e-007 2.214343908e-008 40.6935997
rwrist  0.0003490542294 -0.002273720223 -160.3569946
rhand  -1.771241604e-031 4.589379787 -7.989200115
rfingers  -90 -7.125020027 -90
rthumb  -85.26126953 -8.150156773 -59.68400277
rfemur  -11.36202526 15.17966461 12.36149406
rtibia  -0.5441473126 -1.372325897 18.56543922
rfoot  1.337779522 -21.6617012 -35.49058914
rtoes  3.835952967 19.64349068 -101.2799239
lfemur  -3.884999275 -16.92217064 -22.91611671
ltibia  6.909573078 -0.676369071 7.308409691
lfoot  0.5041970015 -20.69314194 36.4416275
ltoes  -8.656471972 -18.09912799 -116.107789
202
root  34.81001967 36.56928596 -14.22449547 9.733558655 -3.982764721 3.927499771
lowerback  -7.914792538 0.01305983216 -1.272814989
upperback  -4.042069912 0.7075279951 -4.708980083
thorax  0.3035250008 0.5526643991 -4.098760128
lowerneck  -7.049819946 -14.78947639 -9.567629814
upperneck  13.92440033 -20.71529007 13.22509956
head  7.857301712 -9.274513245 3.612597227
lclavicle  0 -4.497500157e-015 -2.743230041e-014
lhumerus  -47.47430038 30.90360069 61.18569946
lradius  -0.05893063545 -6.507048965e-006 29.05653572
lwrist  3.192251654e-007 -3.790274832e-007 -30.11689949
lhand  -4.445230289e-031 -37.4048996 -10.54539967
lfingers  90 7.125020027 -90
lthumb  95.02386042 -25.365418 101.5964714
rclavicle  0 -4.497500157e-015 -2.743230041e-014
rhumerus  17.85449982 -37.25559998 -38.66180038
rradius  -5.16745672e-007 2.214343908e-008 40.9076004
rwrist  0.0003490542294 -0.002273720223 -160.4250031
rhand  -1.771117769e-031 4.539199829 -7.899020195
rfingers  -90 -7.125020027 -90
rthumb  -85.22658851 -8.224488045 -59.72621382
rfemur  -11.33799934 15.1773777 12.35786629
rtibia  -0.5418616533 -1.378001094 18.57217789
rfoot  1.33218646 -21.69469261 -35.48111725
rtoes  3.848701829 19.64109169 -101.3178503
lfemur  -3.791689634 -16.91423225 -22.94880295
ltibia  6.961436272 -0.6786835194 7.200026512
lfoot  0.4975931644 -20.65108681 36.46512985
ltoes  -8.680535279 -18.08789938 -116.1852703
203
root  34.81027798 36.56930999 -14.22555127 9.733807564 -3.968119383 3.92280364
lowerback  -7.91307354 0.01359228138 -1.264874578
upperback  -4.036290169 0.699451983 -4.701980114
thorax  0.3080610037 0.5515574217 -4.097080231
lowerneck  -7.058499813 -14.79122925 -9.584329605
upperneck  13.93879986 -20.71406364 13.24289989
head  7.855647564 -9.27426815 3.621526957
lclavicle  0 -4.497500157e-015 -2.743230041e-014
lhumerus  -47.47000122 30.91600037 61.19910049
lradius  -0.06277443469 -6.507048965e-006 29.07147026
lwrist  3.192251654e-007 -3.790274832e-007 -30.12249947
lhand  -4.444791312e-031 -37.39749908 -10.5717001
lfingers  90 7.125020027 -90
lthumb  95.02628886 -25.39151039 101.591122
rclavicle  0 -4.497500157e-015 -2.743230041e-014
rhumerus  17.67160225 -37.28720093 -38.61200333
rradius  -5.16745672e-007 2.214343908e-008 41.15140152
rwrist  0.0003490542294 -0.002273720223 -160.5590057
rhand  -1.771176184e-031 4.562940121 -7.830850124
rfingers  -90 -7.125020027 -90
rthumb  -85.18647568 -8.285030863 -59.69816871
rfemur  -11.32219791 15.18290806 12.34800816
rtibia  -0.5320073962 -1.374136686 18.54346275
rfoot  1.337248802 -21.6770401 -35.50537872
rtoes  3.848061017 19.64121247 -101.3159439
lfemur  -3.944991589 -16.98620415 -22.88960648
ltibia  6.835053444 -0.7057985663 7.457009315
lfoot  0.5045705438 -20.68605423 36.47263336
ltoes  -8.694221852 -18.08149539 -116.2293605
204
root  34.81269596 36.56913277 -14.22669719 9.72533226 -3.961504936 3.909901381
lowerback  -7.916609764 0.01313104481 -1.294830084
upperback  -4.029439926 0.6895999908 -4.699960232
thorax  0.3161390126 0.5506585836 -4.079480171
lowerneck  -7.061769962 -14.79229355 -9.571660042
upperneck  13.92210007 -20.71619987 13.25949955
head  7.853518486 -9.274163246 3.625715971
lclavicle  0 -4.497500157e-015 -2.743230041e-014
lhumerus  -47.46279907 30.97179794 61.17179871
lradius  -0.0664665997 -6.507048965e-006 29.07279778
lwrist  3.192251654e-007 -3.790274832e-007 -30.15570068
lhand  -4.443759899e-031 -37.38010025 -10.67660046
lfingers  90 7.125020027 -90
lthumb  95.04148128 -25.49496238 101.5825369
rclavicle  0 -4.497500157e-015 -2.743230041e-014
rhumerus  17.51479721 -37.34140015 -38.59929657
rradius  -5.16745672e-007 2.214343908e-008 41.395401
rwrist  0.0003490542294 -0.002273720223 -160.6009979
rhand  -1.771144798e-031 4.550199986 -7.837039948
rfingers  -90 -7.125020027 -90
rthumb  -85.19252728 -8.278801078 -59.71107006
rfemur  -11.31517696 15.20243454 12.36262226
rtibia  -0.529994607 -1.343434215 18.53577423
rfoot  1.361341476 -21.6075325 -35.48368073
rtoes  3.864937867 19.63802448 -101.3661572
lfemur  -4.068670273 -16.98286438 -22.82257462
ltibia  6.727161884 -0.6999721527 7.672882557
lfoot  0.5126422048 -20.78598213 36.44061279
ltoes  -8.70148305 -18.0780927 -116.2527579
